<mxfile host="app.diagrams.net" modified="2024-06-06T16:57:39.413Z" agent="Mozilla/5.0 (X11; Ubuntu; Linux x86_64; rv:124.0) Gecko/20100101 Firefox/124.0" etag="f-p7xXvKquNIL6X9hugq" version="24.4.15" type="device">
  <diagram name="Page-1" id="YhHUuiQtckeyCKtGwnrG">
    <mxGraphModel dx="2726" dy="1698" grid="0" gridSize="20" guides="1" tooltips="1" connect="1" arrows="1" fold="1" page="0" pageScale="1" pageWidth="827" pageHeight="1169" math="0" shadow="0">
      <root>
        <mxCell id="0" />
        <mxCell id="1" parent="0" />
        <mxCell id="7Jmb3qpud_oQzK-CPV8h-1" value="" style="rounded=0;whiteSpace=wrap;html=1;fillColor=#f5f5f5;fontColor=#333333;strokeColor=#000000;strokeWidth=2;" vertex="1" parent="1">
          <mxGeometry x="-200" y="80" width="480" height="480" as="geometry" />
        </mxCell>
        <mxCell id="7Jmb3qpud_oQzK-CPV8h-33" value="" style="rounded=0;whiteSpace=wrap;html=1;fillColor=#f5f5f5;fontColor=#007FFF;strokeColor=#BABABA;strokeWidth=2;" vertex="1" parent="1">
          <mxGeometry x="480" y="480" width="160" height="120" as="geometry" />
        </mxCell>
        <mxCell id="7Jmb3qpud_oQzK-CPV8h-24" value="" style="rounded=0;whiteSpace=wrap;html=1;strokeColor=#BABABA;fillColor=#f5f5f5;fontColor=#FF8000;strokeWidth=2;" vertex="1" parent="1">
          <mxGeometry x="520" y="80" width="400" height="240" as="geometry" />
        </mxCell>
        <mxCell id="7Jmb3qpud_oQzK-CPV8h-2" value="" style="endArrow=none;html=1;rounded=0;strokeColor=#000000;strokeWidth=2;" edge="1" parent="1">
          <mxGeometry width="50" height="50" relative="1" as="geometry">
            <mxPoint x="-200" y="480" as="sourcePoint" />
            <mxPoint x="280" y="480" as="targetPoint" />
          </mxGeometry>
        </mxCell>
        <mxCell id="7Jmb3qpud_oQzK-CPV8h-4" value="" style="endArrow=none;html=1;rounded=0;strokeColor=#000000;strokeWidth=2;fontColor=#FF8000;" edge="1" parent="1">
          <mxGeometry width="50" height="50" relative="1" as="geometry">
            <mxPoint x="-200" y="240" as="sourcePoint" />
            <mxPoint x="280" y="240" as="targetPoint" />
          </mxGeometry>
        </mxCell>
        <mxCell id="7Jmb3qpud_oQzK-CPV8h-5" value="" style="endArrow=none;html=1;rounded=0;strokeColor=#000000;strokeWidth=2;fontColor=#FF8000;" edge="1" parent="1">
          <mxGeometry width="50" height="50" relative="1" as="geometry">
            <mxPoint x="-200" y="320" as="sourcePoint" />
            <mxPoint x="280" y="320" as="targetPoint" />
          </mxGeometry>
        </mxCell>
        <mxCell id="7Jmb3qpud_oQzK-CPV8h-6" value="" style="endArrow=none;html=1;rounded=0;strokeColor=#000000;strokeWidth=2;" edge="1" parent="1">
          <mxGeometry width="50" height="50" relative="1" as="geometry">
            <mxPoint x="-200" y="400" as="sourcePoint" />
            <mxPoint x="280" y="400" as="targetPoint" />
          </mxGeometry>
        </mxCell>
        <mxCell id="7Jmb3qpud_oQzK-CPV8h-7" value="" style="endArrow=none;html=1;rounded=0;strokeColor=#000000;strokeWidth=2;fontColor=#FF8000;" edge="1" parent="1">
          <mxGeometry width="50" height="50" relative="1" as="geometry">
            <mxPoint x="-200" y="160" as="sourcePoint" />
            <mxPoint x="280" y="160" as="targetPoint" />
          </mxGeometry>
        </mxCell>
        <mxCell id="7Jmb3qpud_oQzK-CPV8h-8" value="" style="endArrow=none;html=1;rounded=0;strokeColor=#000000;strokeWidth=2;" edge="1" parent="1">
          <mxGeometry width="50" height="50" relative="1" as="geometry">
            <mxPoint x="-120" y="80" as="sourcePoint" />
            <mxPoint x="-120" y="560" as="targetPoint" />
          </mxGeometry>
        </mxCell>
        <mxCell id="7Jmb3qpud_oQzK-CPV8h-9" value="" style="endArrow=none;html=1;rounded=0;strokeColor=#000000;strokeWidth=2;" edge="1" parent="1">
          <mxGeometry width="50" height="50" relative="1" as="geometry">
            <mxPoint x="-40" y="80" as="sourcePoint" />
            <mxPoint x="-40" y="560" as="targetPoint" />
          </mxGeometry>
        </mxCell>
        <mxCell id="7Jmb3qpud_oQzK-CPV8h-10" value="" style="endArrow=none;html=1;rounded=0;strokeColor=#000000;strokeWidth=2;" edge="1" parent="1">
          <mxGeometry width="50" height="50" relative="1" as="geometry">
            <mxPoint x="120" y="80" as="sourcePoint" />
            <mxPoint x="120" y="560" as="targetPoint" />
          </mxGeometry>
        </mxCell>
        <mxCell id="7Jmb3qpud_oQzK-CPV8h-12" value="" style="endArrow=none;html=1;rounded=0;strokeColor=#000000;strokeWidth=2;fontColor=#FF8000;" edge="1" parent="1">
          <mxGeometry width="50" height="50" relative="1" as="geometry">
            <mxPoint x="920" y="80" as="sourcePoint" />
            <mxPoint x="520" y="80" as="targetPoint" />
          </mxGeometry>
        </mxCell>
        <mxCell id="7Jmb3qpud_oQzK-CPV8h-13" value="" style="endArrow=none;html=1;rounded=0;strokeColor=#000000;strokeWidth=2;fontColor=#FF8000;" edge="1" parent="1">
          <mxGeometry width="50" height="50" relative="1" as="geometry">
            <mxPoint x="520" y="80" as="sourcePoint" />
            <mxPoint x="520" y="320" as="targetPoint" />
          </mxGeometry>
        </mxCell>
        <mxCell id="7Jmb3qpud_oQzK-CPV8h-14" value="" style="endArrow=none;html=1;rounded=0;strokeColor=#000000;strokeWidth=2;fontColor=#FF8000;" edge="1" parent="1">
          <mxGeometry width="50" height="50" relative="1" as="geometry">
            <mxPoint x="520" y="240" as="sourcePoint" />
            <mxPoint x="840" y="240" as="targetPoint" />
          </mxGeometry>
        </mxCell>
        <mxCell id="7Jmb3qpud_oQzK-CPV8h-15" value="" style="endArrow=none;html=1;rounded=0;strokeColor=#000000;strokeWidth=2;fontColor=#FF8000;" edge="1" parent="1">
          <mxGeometry width="50" height="50" relative="1" as="geometry">
            <mxPoint x="840" y="240" as="sourcePoint" />
            <mxPoint x="840" y="80" as="targetPoint" />
          </mxGeometry>
        </mxCell>
        <mxCell id="7Jmb3qpud_oQzK-CPV8h-16" value="" style="rounded=0;whiteSpace=wrap;html=1;dashed=1;fillColor=none;strokeColor=#000000;strokeWidth=2;fontColor=#FF8000;" vertex="1" parent="1">
          <mxGeometry x="560" y="120" width="240" height="80" as="geometry" />
        </mxCell>
        <mxCell id="7Jmb3qpud_oQzK-CPV8h-17" value="" style="endArrow=none;dashed=1;html=1;rounded=0;strokeColor=#000000;strokeWidth=2;fontColor=#FF8000;" edge="1" parent="1">
          <mxGeometry width="50" height="50" relative="1" as="geometry">
            <mxPoint x="680" y="200" as="sourcePoint" />
            <mxPoint x="680" y="120" as="targetPoint" />
          </mxGeometry>
        </mxCell>
        <mxCell id="7Jmb3qpud_oQzK-CPV8h-18" value="" style="endArrow=none;dashed=1;html=1;rounded=0;strokeColor=#000000;strokeWidth=2;fontColor=#FF8000;" edge="1" parent="1">
          <mxGeometry width="50" height="50" relative="1" as="geometry">
            <mxPoint x="720" y="200" as="sourcePoint" />
            <mxPoint x="720" y="120" as="targetPoint" />
          </mxGeometry>
        </mxCell>
        <mxCell id="7Jmb3qpud_oQzK-CPV8h-19" value="" style="endArrow=none;dashed=1;html=1;rounded=0;strokeColor=#000000;strokeWidth=2;fontColor=#FF8000;" edge="1" parent="1">
          <mxGeometry width="50" height="50" relative="1" as="geometry">
            <mxPoint x="760" y="200" as="sourcePoint" />
            <mxPoint x="760" y="120" as="targetPoint" />
          </mxGeometry>
        </mxCell>
        <mxCell id="7Jmb3qpud_oQzK-CPV8h-20" value="" style="endArrow=none;dashed=1;html=1;rounded=0;strokeColor=#000000;strokeWidth=2;fontColor=#FF8000;" edge="1" parent="1">
          <mxGeometry width="50" height="50" relative="1" as="geometry">
            <mxPoint x="600" y="200" as="sourcePoint" />
            <mxPoint x="600" y="120" as="targetPoint" />
          </mxGeometry>
        </mxCell>
        <mxCell id="7Jmb3qpud_oQzK-CPV8h-21" value="" style="endArrow=none;dashed=1;html=1;rounded=0;strokeColor=#000000;strokeWidth=2;fontColor=#FF8000;" edge="1" parent="1">
          <mxGeometry width="50" height="50" relative="1" as="geometry">
            <mxPoint x="640" y="200" as="sourcePoint" />
            <mxPoint x="640" y="120" as="targetPoint" />
          </mxGeometry>
        </mxCell>
        <mxCell id="7Jmb3qpud_oQzK-CPV8h-22" value="" style="endArrow=none;dashed=1;html=1;rounded=0;strokeColor=#000000;strokeWidth=2;fontColor=#FF8000;" edge="1" parent="1">
          <mxGeometry width="50" height="50" relative="1" as="geometry">
            <mxPoint x="560" y="160" as="sourcePoint" />
            <mxPoint x="800" y="160" as="targetPoint" />
          </mxGeometry>
        </mxCell>
        <mxCell id="7Jmb3qpud_oQzK-CPV8h-26" value="" style="rounded=0;whiteSpace=wrap;html=1;fillColor=none;fontColor=#007FFF;strokeColor=#000000;strokeWidth=2;dashed=1;" vertex="1" parent="1">
          <mxGeometry x="520" y="520" width="40" height="40" as="geometry" />
        </mxCell>
        <mxCell id="7Jmb3qpud_oQzK-CPV8h-27" value="" style="rounded=0;whiteSpace=wrap;html=1;fillColor=none;fontColor=#007FFF;strokeColor=#000000;strokeWidth=2;dashed=1;" vertex="1" parent="1">
          <mxGeometry x="560" y="520" width="40" height="40" as="geometry" />
        </mxCell>
        <mxCell id="7Jmb3qpud_oQzK-CPV8h-29" value="" style="endArrow=none;html=1;rounded=0;fillColor=#f5f5f5;strokeColor=#000000;strokeWidth=2;fontColor=#007FFF;" edge="1" parent="1">
          <mxGeometry width="50" height="50" relative="1" as="geometry">
            <mxPoint x="480" y="600" as="sourcePoint" />
            <mxPoint x="480" y="480" as="targetPoint" />
          </mxGeometry>
        </mxCell>
        <mxCell id="7Jmb3qpud_oQzK-CPV8h-31" value="" style="endArrow=none;html=1;rounded=0;fillColor=#f5f5f5;strokeColor=#000000;strokeWidth=2;fontColor=#007FFF;" edge="1" parent="1">
          <mxGeometry width="50" height="50" relative="1" as="geometry">
            <mxPoint x="640" y="480" as="sourcePoint" />
            <mxPoint x="480" y="480" as="targetPoint" />
          </mxGeometry>
        </mxCell>
        <mxCell id="7Jmb3qpud_oQzK-CPV8h-35" value="" style="shape=crossbar;whiteSpace=wrap;html=1;rounded=1;direction=south;" vertex="1" parent="1">
          <mxGeometry x="-260" y="80" width="40" height="480" as="geometry" />
        </mxCell>
        <mxCell id="7Jmb3qpud_oQzK-CPV8h-38" value="" style="shape=crossbar;whiteSpace=wrap;html=1;rounded=1;direction=south;fontColor=#007FFF;" vertex="1" parent="1">
          <mxGeometry x="420" y="480" width="40" height="40" as="geometry" />
        </mxCell>
        <mxCell id="7Jmb3qpud_oQzK-CPV8h-40" value="" style="shape=crossbar;whiteSpace=wrap;html=1;rounded=1;direction=south;fontColor=#FF8000;" vertex="1" parent="1">
          <mxGeometry x="460" y="120" width="40" height="80" as="geometry" />
        </mxCell>
        <mxCell id="7Jmb3qpud_oQzK-CPV8h-41" value="" style="shape=crossbar;whiteSpace=wrap;html=1;rounded=1;direction=south;fontColor=#007FFF;" vertex="1" parent="1">
          <mxGeometry x="660" y="520" width="40" height="40" as="geometry" />
        </mxCell>
        <mxCell id="7Jmb3qpud_oQzK-CPV8h-46" value="" style="shape=crossbar;whiteSpace=wrap;html=1;rounded=1;fontColor=#FF8000;" vertex="1" parent="1">
          <mxGeometry x="-200" y="20" width="480" height="40" as="geometry" />
        </mxCell>
        <mxCell id="7Jmb3qpud_oQzK-CPV8h-47" value="" style="shape=crossbar;whiteSpace=wrap;html=1;rounded=1;fontColor=#FF8000;" vertex="1" parent="1">
          <mxGeometry x="560" y="20" width="240" height="40" as="geometry" />
        </mxCell>
        <mxCell id="7Jmb3qpud_oQzK-CPV8h-48" value="" style="shape=crossbar;whiteSpace=wrap;html=1;rounded=1;fontColor=#007FFF;" vertex="1" parent="1">
          <mxGeometry x="520" y="620" width="40" height="40" as="geometry" />
        </mxCell>
        <mxCell id="7Jmb3qpud_oQzK-CPV8h-49" value="N&lt;sub&gt;&lt;font style=&quot;font-size: 12px;&quot;&gt; COL&lt;/font&gt;&lt;/sub&gt;" style="text;html=1;align=center;verticalAlign=middle;whiteSpace=wrap;rounded=0;fontStyle=1;fontSize=18;fontColor=#FF8000;" vertex="1" parent="1">
          <mxGeometry y="-20" width="80" height="40" as="geometry" />
        </mxCell>
        <mxCell id="7Jmb3qpud_oQzK-CPV8h-50" value="N&lt;sub&gt;&lt;font style=&quot;font-size: 12px;&quot;&gt; ROW&lt;/font&gt;&lt;/sub&gt;" style="text;html=1;align=center;verticalAlign=bottom;whiteSpace=wrap;rounded=0;fontStyle=1;fontSize=18;fontColor=#FF8000;" vertex="1" parent="1">
          <mxGeometry x="-340" y="300" width="80" height="40" as="geometry" />
        </mxCell>
        <mxCell id="7Jmb3qpud_oQzK-CPV8h-51" value="COL&lt;sub&gt; W&lt;/sub&gt;" style="text;html=1;align=center;verticalAlign=middle;whiteSpace=wrap;rounded=0;fontStyle=1;fontSize=18;fontColor=#FF8000;" vertex="1" parent="1">
          <mxGeometry x="640" y="-20" width="80" height="40" as="geometry" />
        </mxCell>
        <mxCell id="7Jmb3qpud_oQzK-CPV8h-52" value="ROW&lt;font size=&quot;1&quot;&gt;&lt;sub style=&quot;font-size: 12px;&quot;&gt; &lt;/sub&gt;&lt;sub style=&quot;font-size: 12px;&quot;&gt;H&lt;/sub&gt;&lt;/font&gt;" style="text;html=1;align=right;verticalAlign=bottom;whiteSpace=wrap;rounded=0;fontStyle=1;fontSize=18;fontColor=#FF8000;" vertex="1" parent="1">
          <mxGeometry x="380" y="140" width="80" height="40" as="geometry" />
        </mxCell>
        <mxCell id="7Jmb3qpud_oQzK-CPV8h-53" value="G&lt;sub&gt;&lt;font style=&quot;font-size: 12px;&quot;&gt; PAD&lt;/font&gt;&lt;/sub&gt;" style="text;html=1;align=right;verticalAlign=bottom;whiteSpace=wrap;rounded=0;fontStyle=1;fontSize=18;fontColor=#007FFF;" vertex="1" parent="1">
          <mxGeometry x="340" y="480" width="80" height="40" as="geometry" />
        </mxCell>
        <mxCell id="7Jmb3qpud_oQzK-CPV8h-54" value="FT&lt;sub&gt;&lt;font style=&quot;font-size: 12px;&quot;&gt; W&lt;/font&gt;&lt;/sub&gt;" style="text;html=1;align=center;verticalAlign=middle;whiteSpace=wrap;rounded=0;fontStyle=1;fontSize=18;fontColor=#007FFF;" vertex="1" parent="1">
          <mxGeometry x="500" y="660" width="80" height="40" as="geometry" />
        </mxCell>
        <mxCell id="7Jmb3qpud_oQzK-CPV8h-55" value="FT&lt;sub&gt;&lt;font style=&quot;font-size: 12px;&quot;&gt; H&lt;/font&gt;&lt;/sub&gt;" style="text;html=1;align=left;verticalAlign=bottom;whiteSpace=wrap;rounded=0;fontStyle=1;fontSize=18;fontColor=#007FFF;" vertex="1" parent="1">
          <mxGeometry x="700" y="520" width="80" height="40" as="geometry" />
        </mxCell>
        <mxCell id="7Jmb3qpud_oQzK-CPV8h-57" value="" style="endArrow=none;html=1;rounded=0;strokeColor=#000000;strokeWidth=2;fontColor=#FF8000;" edge="1" parent="1">
          <mxGeometry width="50" height="50" relative="1" as="geometry">
            <mxPoint x="880" y="240" as="sourcePoint" />
            <mxPoint x="880" y="80" as="targetPoint" />
          </mxGeometry>
        </mxCell>
        <mxCell id="7Jmb3qpud_oQzK-CPV8h-58" value="" style="endArrow=none;html=1;rounded=0;strokeColor=#000000;strokeWidth=2;fontColor=#FF8000;" edge="1" parent="1">
          <mxGeometry width="50" height="50" relative="1" as="geometry">
            <mxPoint x="520" y="280" as="sourcePoint" />
            <mxPoint x="840" y="280" as="targetPoint" />
          </mxGeometry>
        </mxCell>
        <mxCell id="7Jmb3qpud_oQzK-CPV8h-59" value="" style="endArrow=none;html=1;rounded=0;strokeWidth=2;fontColor=#FF8000;" edge="1" parent="1">
          <mxGeometry width="50" height="50" relative="1" as="geometry">
            <mxPoint x="880" y="320" as="sourcePoint" />
            <mxPoint x="880" y="280" as="targetPoint" />
          </mxGeometry>
        </mxCell>
        <mxCell id="7Jmb3qpud_oQzK-CPV8h-60" value="" style="endArrow=none;html=1;rounded=0;strokeWidth=2;fontColor=#FF8000;" edge="1" parent="1">
          <mxGeometry width="50" height="50" relative="1" as="geometry">
            <mxPoint x="840" y="320" as="sourcePoint" />
            <mxPoint x="840" y="280" as="targetPoint" />
          </mxGeometry>
        </mxCell>
        <mxCell id="7Jmb3qpud_oQzK-CPV8h-61" value="" style="endArrow=none;html=1;rounded=0;strokeWidth=2;fontColor=#FF8000;" edge="1" parent="1">
          <mxGeometry width="50" height="50" relative="1" as="geometry">
            <mxPoint x="920" y="240" as="sourcePoint" />
            <mxPoint x="880" y="240" as="targetPoint" />
          </mxGeometry>
        </mxCell>
        <mxCell id="7Jmb3qpud_oQzK-CPV8h-62" value="" style="endArrow=none;html=1;rounded=0;strokeWidth=2;fontColor=#FF8000;" edge="1" parent="1">
          <mxGeometry width="50" height="50" relative="1" as="geometry">
            <mxPoint x="920" y="280" as="sourcePoint" />
            <mxPoint x="880" y="280" as="targetPoint" />
          </mxGeometry>
        </mxCell>
        <mxCell id="7Jmb3qpud_oQzK-CPV8h-63" value="" style="rounded=0;whiteSpace=wrap;html=1;strokeColor=none;fillColor=#050505;fontColor=#FF8000;fillStyle=hatch;" vertex="1" parent="1">
          <mxGeometry x="520" y="240" width="400" height="40" as="geometry" />
        </mxCell>
        <mxCell id="7Jmb3qpud_oQzK-CPV8h-64" value="" style="rounded=0;whiteSpace=wrap;html=1;strokeColor=none;fillColor=#050505;fontColor=#FF8000;fillStyle=hatch;" vertex="1" parent="1">
          <mxGeometry x="840" y="80" width="40" height="240" as="geometry" />
        </mxCell>
        <mxCell id="7Jmb3qpud_oQzK-CPV8h-65" value="" style="shape=crossbar;whiteSpace=wrap;html=1;rounded=1;fontColor=#FF8000;" vertex="1" parent="1">
          <mxGeometry x="840" y="20" width="40" height="40" as="geometry" />
        </mxCell>
        <mxCell id="7Jmb3qpud_oQzK-CPV8h-66" value="G&lt;sub&gt;&lt;font style=&quot;font-size: 12px;&quot;&gt; SPACING&lt;/font&gt;&lt;/sub&gt;" style="text;html=1;align=center;verticalAlign=middle;whiteSpace=wrap;rounded=0;fontStyle=1;fontSize=18;fontColor=#007FFF;" vertex="1" parent="1">
          <mxGeometry x="820" y="-20" width="80" height="40" as="geometry" />
        </mxCell>
        <mxCell id="7Jmb3qpud_oQzK-CPV8h-67" value="" style="shape=crossbar;whiteSpace=wrap;html=1;rounded=1;direction=south;fontColor=#FF8000;" vertex="1" parent="1">
          <mxGeometry x="940" y="240" width="40" height="40" as="geometry" />
        </mxCell>
        <mxCell id="7Jmb3qpud_oQzK-CPV8h-68" value="G &lt;sub&gt;&lt;font style=&quot;font-size: 12px;&quot;&gt;SPACING&lt;/font&gt;&lt;/sub&gt;" style="text;html=1;align=left;verticalAlign=bottom;whiteSpace=wrap;rounded=0;fontStyle=1;fontSize=18;fontColor=#007FFF;" vertex="1" parent="1">
          <mxGeometry x="980" y="240" width="80" height="40" as="geometry" />
        </mxCell>
        <mxCell id="7Jmb3qpud_oQzK-CPV8h-69" value="" style="rounded=0;whiteSpace=wrap;html=1;fillColor=none;strokeWidth=2;dashed=1;strokeColor=#8C8C8C;fontColor=#FF8000;" vertex="1" parent="1">
          <mxGeometry x="-180" y="100" width="40" height="40" as="geometry" />
        </mxCell>
        <mxCell id="7Jmb3qpud_oQzK-CPV8h-70" value="" style="rounded=0;whiteSpace=wrap;html=1;fillColor=none;strokeWidth=2;dashed=1;strokeColor=#8C8C8C;fontColor=#FF8000;" vertex="1" parent="1">
          <mxGeometry x="-180" y="180" width="40" height="40" as="geometry" />
        </mxCell>
        <mxCell id="7Jmb3qpud_oQzK-CPV8h-71" value="" style="rounded=0;whiteSpace=wrap;html=1;fillColor=none;strokeWidth=2;dashed=1;strokeColor=#8C8C8C;fontColor=#FF8000;" vertex="1" parent="1">
          <mxGeometry x="-180" y="260" width="40" height="40" as="geometry" />
        </mxCell>
        <mxCell id="7Jmb3qpud_oQzK-CPV8h-72" value="" style="rounded=0;whiteSpace=wrap;html=1;fillColor=none;strokeWidth=2;dashed=1;strokeColor=#8C8C8C;fontColor=#FF8000;" vertex="1" parent="1">
          <mxGeometry x="-180" y="340" width="40" height="40" as="geometry" />
        </mxCell>
        <mxCell id="7Jmb3qpud_oQzK-CPV8h-73" value="" style="rounded=0;whiteSpace=wrap;html=1;fillColor=none;strokeWidth=2;dashed=1;strokeColor=#8C8C8C;" vertex="1" parent="1">
          <mxGeometry x="-180" y="420" width="40" height="40" as="geometry" />
        </mxCell>
        <mxCell id="7Jmb3qpud_oQzK-CPV8h-74" value="" style="rounded=0;whiteSpace=wrap;html=1;fillColor=none;strokeWidth=2;dashed=1;strokeColor=#8C8C8C;" vertex="1" parent="1">
          <mxGeometry x="-180" y="500" width="40" height="40" as="geometry" />
        </mxCell>
        <mxCell id="7Jmb3qpud_oQzK-CPV8h-75" value="" style="rounded=0;whiteSpace=wrap;html=1;fillColor=none;strokeWidth=2;dashed=1;strokeColor=#8C8C8C;" vertex="1" parent="1">
          <mxGeometry x="-20" y="500" width="120" height="40" as="geometry" />
        </mxCell>
        <mxCell id="7Jmb3qpud_oQzK-CPV8h-76" value="" style="rounded=0;whiteSpace=wrap;html=1;fillColor=none;strokeWidth=2;dashed=1;strokeColor=#8C8C8C;" vertex="1" parent="1">
          <mxGeometry x="-20" y="420" width="120" height="40" as="geometry" />
        </mxCell>
        <mxCell id="7Jmb3qpud_oQzK-CPV8h-77" value="" style="rounded=0;whiteSpace=wrap;html=1;fillColor=none;strokeWidth=2;dashed=1;strokeColor=#8C8C8C;fontColor=#FF8000;" vertex="1" parent="1">
          <mxGeometry x="-20" y="340" width="120" height="40" as="geometry" />
        </mxCell>
        <mxCell id="7Jmb3qpud_oQzK-CPV8h-78" value="" style="rounded=0;whiteSpace=wrap;html=1;fillColor=none;strokeWidth=2;dashed=1;strokeColor=#8C8C8C;fontColor=#FF8000;" vertex="1" parent="1">
          <mxGeometry x="-20" y="260" width="120" height="40" as="geometry" />
        </mxCell>
        <mxCell id="7Jmb3qpud_oQzK-CPV8h-79" value="" style="rounded=0;whiteSpace=wrap;html=1;fillColor=none;strokeWidth=2;dashed=1;strokeColor=#8C8C8C;fontColor=#FF8000;" vertex="1" parent="1">
          <mxGeometry x="-20" y="180" width="120" height="40" as="geometry" />
        </mxCell>
        <mxCell id="7Jmb3qpud_oQzK-CPV8h-80" value="" style="rounded=0;whiteSpace=wrap;html=1;fillColor=none;strokeWidth=2;dashed=1;strokeColor=#8C8C8C;fontColor=#FF8000;" vertex="1" parent="1">
          <mxGeometry x="-20" y="100" width="120" height="40" as="geometry" />
        </mxCell>
        <mxCell id="7Jmb3qpud_oQzK-CPV8h-81" value="" style="rounded=0;whiteSpace=wrap;html=1;fillColor=none;strokeWidth=2;dashed=1;strokeColor=#8C8C8C;" vertex="1" parent="1">
          <mxGeometry x="140" y="500" width="120" height="40" as="geometry" />
        </mxCell>
        <mxCell id="7Jmb3qpud_oQzK-CPV8h-82" value="" style="rounded=0;whiteSpace=wrap;html=1;fillColor=none;strokeWidth=2;dashed=1;strokeColor=#8C8C8C;" vertex="1" parent="1">
          <mxGeometry x="140" y="420" width="120" height="40" as="geometry" />
        </mxCell>
        <mxCell id="7Jmb3qpud_oQzK-CPV8h-83" value="" style="rounded=0;whiteSpace=wrap;html=1;fillColor=none;strokeWidth=2;dashed=1;strokeColor=#8C8C8C;fontColor=#FF8000;" vertex="1" parent="1">
          <mxGeometry x="140" y="340" width="120" height="40" as="geometry" />
        </mxCell>
        <mxCell id="7Jmb3qpud_oQzK-CPV8h-84" value="" style="rounded=0;whiteSpace=wrap;html=1;fillColor=none;strokeWidth=2;dashed=1;strokeColor=#8C8C8C;fontColor=#FF8000;" vertex="1" parent="1">
          <mxGeometry x="140" y="260" width="120" height="40" as="geometry" />
        </mxCell>
        <mxCell id="7Jmb3qpud_oQzK-CPV8h-85" value="" style="rounded=0;whiteSpace=wrap;html=1;fillColor=none;strokeWidth=2;dashed=1;strokeColor=#8C8C8C;fontColor=#FF8000;" vertex="1" parent="1">
          <mxGeometry x="140" y="180" width="120" height="40" as="geometry" />
        </mxCell>
        <mxCell id="7Jmb3qpud_oQzK-CPV8h-86" value="" style="rounded=0;whiteSpace=wrap;html=1;fillColor=none;strokeWidth=2;dashed=1;strokeColor=#8C8C8C;fontColor=#FF8000;" vertex="1" parent="1">
          <mxGeometry x="140" y="100" width="120" height="40" as="geometry" />
        </mxCell>
        <mxCell id="7Jmb3qpud_oQzK-CPV8h-87" value="" style="rounded=0;whiteSpace=wrap;html=1;fillColor=none;strokeWidth=2;dashed=1;strokeColor=#8C8C8C;fontColor=#FF8000;" vertex="1" parent="1">
          <mxGeometry x="-100" y="100" width="40" height="40" as="geometry" />
        </mxCell>
        <mxCell id="7Jmb3qpud_oQzK-CPV8h-88" value="" style="rounded=0;whiteSpace=wrap;html=1;fillColor=none;strokeWidth=2;dashed=1;strokeColor=#8C8C8C;fontColor=#FF8000;" vertex="1" parent="1">
          <mxGeometry x="-100" y="180" width="40" height="40" as="geometry" />
        </mxCell>
        <mxCell id="7Jmb3qpud_oQzK-CPV8h-89" value="" style="rounded=0;whiteSpace=wrap;html=1;fillColor=none;strokeWidth=2;dashed=1;strokeColor=#8C8C8C;fontColor=#FF8000;" vertex="1" parent="1">
          <mxGeometry x="-100" y="260" width="40" height="40" as="geometry" />
        </mxCell>
        <mxCell id="7Jmb3qpud_oQzK-CPV8h-90" value="" style="rounded=0;whiteSpace=wrap;html=1;fillColor=none;strokeWidth=2;dashed=1;strokeColor=#8C8C8C;fontColor=#FF8000;" vertex="1" parent="1">
          <mxGeometry x="-100" y="340" width="40" height="40" as="geometry" />
        </mxCell>
        <mxCell id="7Jmb3qpud_oQzK-CPV8h-91" value="" style="rounded=0;whiteSpace=wrap;html=1;fillColor=none;strokeWidth=2;dashed=1;strokeColor=#8C8C8C;" vertex="1" parent="1">
          <mxGeometry x="-100" y="420" width="40" height="40" as="geometry" />
        </mxCell>
        <mxCell id="7Jmb3qpud_oQzK-CPV8h-92" value="" style="rounded=0;whiteSpace=wrap;html=1;fillColor=none;strokeWidth=2;dashed=1;strokeColor=#8C8C8C;" vertex="1" parent="1">
          <mxGeometry x="-100" y="500" width="40" height="40" as="geometry" />
        </mxCell>
        <mxCell id="7Jmb3qpud_oQzK-CPV8h-94" value="" style="shape=crossbar;whiteSpace=wrap;html=1;rounded=1;fontColor=#007FFF;" vertex="1" parent="1">
          <mxGeometry x="480" y="420" width="40" height="40" as="geometry" />
        </mxCell>
        <mxCell id="7Jmb3qpud_oQzK-CPV8h-95" value="G&lt;sub&gt;&lt;font style=&quot;font-size: 12px;&quot;&gt;PAD&lt;/font&gt;&lt;/sub&gt;" style="text;html=1;align=center;verticalAlign=top;whiteSpace=wrap;rounded=0;fontStyle=1;fontSize=18;fontColor=#007FFF;" vertex="1" parent="1">
          <mxGeometry x="460" y="380" width="80" height="40" as="geometry" />
        </mxCell>
        <mxCell id="7Jmb3qpud_oQzK-CPV8h-97" value="" style="rounded=0;whiteSpace=wrap;html=1;strokeColor=none;fillColor=#007FFF;sketch=1;curveFitting=1;jiggle=2;glass=0;shadow=0;" vertex="1" parent="1">
          <mxGeometry x="-200" y="700" width="60" height="40" as="geometry" />
        </mxCell>
        <mxCell id="7Jmb3qpud_oQzK-CPV8h-98" value="" style="rounded=0;whiteSpace=wrap;html=1;strokeColor=none;fillColor=#FF8000;sketch=1;curveFitting=1;jiggle=2;glass=0;shadow=0;" vertex="1" parent="1">
          <mxGeometry x="-200" y="640" width="60" height="40" as="geometry" />
        </mxCell>
        <mxCell id="7Jmb3qpud_oQzK-CPV8h-99" value="Set through application (library-user)" style="text;html=1;align=left;verticalAlign=middle;whiteSpace=wrap;rounded=0;fontSize=15;fontStyle=1" vertex="1" parent="1">
          <mxGeometry x="-120" y="640" width="280" height="40" as="geometry" />
        </mxCell>
        <mxCell id="7Jmb3qpud_oQzK-CPV8h-100" value="Set through configuration (application end-user)" style="text;html=1;align=left;verticalAlign=middle;whiteSpace=wrap;rounded=0;fontSize=15;fontStyle=1" vertex="1" parent="1">
          <mxGeometry x="-120" y="700" width="398" height="40" as="geometry" />
        </mxCell>
      </root>
    </mxGraphModel>
  </diagram>
</mxfile>
